<svg xmlns="http://www.w3.org/2000/svg" width="64" height="64" fill="none" viewBox="0 0 64 64"><g clip-path="url(#clip0_474_3016)"><path fill="#6EE7B7" d="M32 0L37.3689 5.00879L44.2459 2.43586L47.2893 9.11796L54.6274 9.37258L54.882 16.7107L61.5641 19.7541L58.9912 26.6311L64 32L58.9912 37.3689L61.5641 44.2459L54.882 47.2893L54.6274 54.6274L47.2893 54.882L44.2459 61.5641L37.3689 58.9912L32 64L26.6311 58.9912L19.7541 61.5641L16.7107 54.882L9.37258 54.6274L9.11796 47.2893L2.43586 44.2459L5.00879 37.3689L0 32L5.00879 26.6311L2.43586 19.7541L9.11796 16.7107L9.37258 9.37258L16.7107 9.11796L19.7541 2.43586L26.6311 5.00879L32 0Z"/><circle cx="32" cy="32" r="20" fill="#10B981"/><path stroke="#fff" stroke-linecap="round" stroke-linejoin="round" stroke-width="2" d="M40 26.5L29 37.5L24 32.5"/></g><defs><clipPath id="clip0_474_3016"><rect width="64" height="64" fill="#fff" rx="32"/></clipPath></defs></svg>