<svg width="1216" height="108" viewBox="0 0 1216 108" fill="none" xmlns="http://www.w3.org/2000/svg">
<path d="M72.1379 5.68131L83.3617 9.43378L99.541 3.38378L80.1122 1.74909C79.9206 1.70534 79.7212 1.71225 79.533 1.76916L72.446 3.57883C72.2267 3.6311 72.0279 3.74906 71.8753 3.91743C71.7228 4.08581 71.6235 4.29687 71.5903 4.52331C71.5571 4.74975 71.5915 4.98116 71.6892 5.1876C71.7868 5.39405 71.9431 5.56603 72.1379 5.68131Z" fill="#011E5A"/>
<path d="M135.289 8.50366L122.717 3.39221C121.66 2.82042 120.494 2.48626 119.299 2.41241C118.104 2.33857 116.908 2.52676 115.792 2.96421L67.069 19.5302L57.4779 16.3083C56.927 16.1293 56.3348 16.1306 55.7849 16.312C55.2351 16.4934 54.7554 16.8458 54.4135 17.3194C54.0716 17.793 53.8849 18.3639 53.8796 18.9515C53.8744 19.539 54.0509 20.1136 54.3842 20.594L61.7254 30.9312C61.8456 31.1035 62.0074 31.2416 62.1951 31.3323C62.3829 31.4229 62.5903 31.4631 62.7977 31.4491C65.7899 31.1667 77.3445 28.6361 91.062 25.4216L86.5465 40.9277C86.507 41.1487 86.5276 41.3765 86.6061 41.5865C86.6846 41.7966 86.8181 41.981 86.9921 42.1197C87.1661 42.2584 87.374 42.3463 87.5934 42.3738C87.8128 42.4013 88.0355 42.3675 88.2373 42.2759L94.7957 39.312C95.1552 39.1478 95.4463 38.8601 95.6177 38.4994L108.616 21.2816C118.445 18.9313 127.851 16.6223 134.477 14.9833C135.161 14.8259 135.781 14.4584 136.253 13.9308C136.724 13.4033 137.025 12.741 137.113 12.0338C137.202 11.3266 137.074 10.6086 136.748 9.97719C136.422 9.34575 135.912 8.83134 135.289 8.50366Z" fill="#011E5A"/>
<path fill-rule="evenodd" clip-rule="evenodd" d="M39.6278 46.6731C40.3374 40.7568 49.4124 41.152 49.4124 46.6731V47.9206C55.9977 61.2601 68.3342 68.6339 81.8534 71.3882C88.8993 72.8333 96.2813 73.0186 103.352 72.1664C110.41 71.3141 117.145 69.412 122.896 66.6577C131.859 62.3717 138.457 56.0478 140.212 48.4641V46.6731C140.922 40.7568 149.997 41.152 149.997 46.6731V49.6374C152.711 54.9485 156.433 59.1974 160.603 62.6187C164.176 65.546 168.085 67.9051 171.994 69.8196V73.5003C170.549 72.821 169.093 72.1046 167.661 71.3141V82.5539H171.994V88.2232H149.997V106.281H140.212V88.2108H49.4124V106.269H39.6278V88.2108H19.0254V82.5415H22.6479V70.9312C21.4529 71.6106 20.2329 72.2405 19.0254 72.8457V69.1279C22.4487 67.337 25.8348 65.2125 28.9469 62.6311C33.167 59.1233 36.9015 54.7756 39.6278 49.304V46.6731ZM102.095 75.6371V82.5415H98.7461V75.8965C96.2066 76.0324 93.6546 76.0324 91.0902 75.8965V82.5415H87.7415V75.6248C85.5381 75.4024 83.3472 75.0689 81.1811 74.6243C80.7828 74.5378 80.3844 74.4637 79.9985 74.3649V82.5292H76.6499V73.5127C74.0232 72.7716 71.4713 71.8452 68.994 70.7336V82.5292H65.6453V69.1032C62.9066 67.6334 60.3049 65.9042 57.9023 63.9156V82.5415H54.5536V60.8525C52.6739 58.9504 50.9435 56.8507 49.3999 54.5533V82.5539H140.212V56.6777C138.868 58.7281 137.212 60.6425 135.283 62.4211V82.5415H131.934V65.1508C129.643 66.8182 127.092 68.3251 124.353 69.6343L124.191 69.7084V82.5415H120.842V71.1783C118.402 72.154 115.838 72.9939 113.186 73.6856V82.5539H109.838V74.4761C107.846 74.896 105.804 75.2295 103.75 75.4765C103.203 75.5259 102.655 75.5877 102.095 75.6371ZM158.3 65.0273V82.5539H164.313V69.3503C162.309 68.1028 160.354 66.7071 158.474 65.1631L158.3 65.0273ZM154.951 82.5539V61.9765C153.171 60.1855 151.503 58.234 149.997 56.0725V82.5415H154.951V82.5539ZM35.3455 61.1613V82.5539H39.6278V55.8502C38.3207 57.777 36.8767 59.5309 35.3455 61.1613ZM31.9968 82.5539V64.385C31.698 64.6444 31.3868 64.9161 31.0756 65.1631C29.4449 66.5218 27.7394 67.7693 25.9966 68.9056V82.5539H31.9968Z" fill="#011E5A"/>
<path d="M234.11 105.721H201.426L246.193 1.93472H287.862L332.785 105.721H299.325L291.425 86.5126H242.165L234.11 105.721ZM259.205 45.7727L253.164 60.3337H280.737L274.695 45.7727L267.88 28.2685H265.866L259.205 45.7727ZM365.024 105.721H335.902V1.93472H375.403L394.456 44.9982L404.68 71.7966H406.693L416.452 44.9982L434.576 1.93472H474.077V105.721H444.955V62.8122L446.039 45.4629H444.025L438.139 62.8122L422.648 99.5245H387.33L371.84 62.8122L365.953 45.4629H363.94L365.024 62.8122V105.721ZM728.838 105.721H699.716V1.93472H760.283C787.701 1.93472 802.108 13.3976 802.108 33.6901C802.108 50.11 793.898 59.869 774.07 62.3475V63.8965C784.758 66.6848 788.166 71.7966 792.039 79.6968L804.896 105.721H771.282L758.889 80.3164C755.171 72.5711 752.073 70.4025 740.765 70.4025H728.838V105.721ZM728.838 28.1136V48.7159H759.974C768.493 48.7159 771.591 47.1668 771.591 38.3373C771.591 30.1273 768.493 28.1136 759.974 28.1136H728.838ZM838.663 105.721H809.541V1.93472H838.663V105.721ZM903.73 107.27C867.637 107.27 846.415 86.2027 846.415 53.8277C846.415 21.4527 867.637 0.385676 903.73 0.385676C938.583 0.385676 959.495 16.9605 959.495 44.6883V47.3217H926.965V44.6883C926.965 32.9156 921.389 28.2685 904.194 28.2685C883.127 28.2685 877.396 33.2254 877.396 53.8277C877.396 74.43 883.127 79.3869 904.194 79.3869C921.389 79.3869 926.965 74.7398 926.965 62.9671V60.3337H959.495V62.9671C959.495 90.695 938.583 107.27 903.73 107.27ZM993.657 105.721H960.972L1005.74 1.93472H1047.41L1092.33 105.721H1058.87L1050.97 86.5126H1001.71L993.657 105.721ZM1018.75 45.7727L1012.71 60.3337H1040.28L1034.24 45.7727L1027.43 28.2685H1025.41L1018.75 45.7727ZM1145.79 107.27C1114.04 107.27 1094.67 95.9617 1094.67 69.628V68.6985H1123.8V71.9515C1123.8 78.9222 1126.27 80.7811 1145.79 80.7811C1163.45 80.7811 1165.31 79.3869 1165.31 74.7398C1165.31 71.0221 1163.3 69.4731 1154.78 68.3887L1122.25 64.0514C1102.88 61.418 1093.12 51.0394 1093.12 34.3097C1093.12 17.735 1105.98 0.385676 1143.47 0.385676C1176.46 0.385676 1192.26 14.7918 1192.26 38.0275V38.9569H1163.14V36.6333C1163.14 29.1979 1159.89 26.7194 1140.37 26.7194C1125.5 26.7194 1122.25 28.7332 1122.25 33.2254C1122.25 36.4784 1124.11 38.0275 1129.68 38.802L1162.21 43.604C1187.62 47.3217 1194.43 60.3337 1194.43 73.6555C1194.43 91.4695 1180.8 107.27 1145.79 107.27Z" fill="#011E5A"/>
<rect width="193.631" height="102.624" transform="translate(491.484 1.7207)" fill="white"/>
<rect width="63.8981" height="63.8981" transform="translate(491.484 1.42188)" fill="#4348D8"/>
<path d="M523.433 22.7207L525.824 30.0795H533.561L527.302 34.6274L529.693 41.9862L523.433 37.4382L517.173 41.9862L519.564 34.6274L513.304 30.0795H521.042L523.433 22.7207Z" fill="white"/>
<path d="M507.943 7.23047L510.334 14.5892H518.071L511.811 19.1372L514.202 26.4959L507.943 21.948L501.683 26.4959L504.074 19.1372L497.814 14.5892H505.552L507.943 7.23047Z" fill="white"/>
<path d="M538.923 7.23047L541.314 14.5892H549.052L542.792 19.1372L545.183 26.4959L538.923 21.948L532.663 26.4959L535.054 19.1372L528.795 14.5892H536.532L538.923 7.23047Z" fill="white"/>
<path d="M538.923 38.2129L541.314 45.5716H549.052L542.792 50.1196L545.183 57.4783L538.923 52.9304L532.663 57.4783L535.054 50.1196L528.795 45.5716H536.532L538.923 38.2129Z" fill="white"/>
<path d="M507.943 38.2129L510.334 45.5716H518.071L511.811 50.1196L514.202 57.4783L507.943 52.9304L501.683 57.4783L504.074 50.1196L497.814 45.5716H505.552L507.943 38.2129Z" fill="white"/>
<rect x="555.383" y="1.42188" width="129.732" height="23.2357" fill="#AE0D26"/>
<rect x="555.383" y="40.7441" width="129.732" height="23.2357" fill="#AE0D26"/>
<rect x="491.484" y="81.4062" width="193.631" height="23.2357" fill="#AE0D26"/>
</svg>
